G04 PROTEUS GERBER X2 FILE*
%TF.GenerationSoftware,Labcenter,Proteus,8.11-SP0-Build30052*%
%TF.CreationDate,2022-02-17T19:40:43+00:00*%
%TF.FileFunction,Copper,L1,Top*%
%TF.FilePolarity,Positive*%
%TF.Part,Single*%
%TF.SameCoordinates,{fa563668-36b4-49a2-8e21-0a91219477cd}*%
%FSLAX45Y45*%
%MOMM*%
G01*
%TA.AperFunction,NonConductor*%
%ADD10C,0.762000*%
%TA.AperFunction,Conductor*%
%ADD11C,0.635000*%
%ADD12C,0.762000*%
%TA.AperFunction,ComponentPad*%
%ADD13R,2.032000X2.032000*%
%TA.AperFunction,ComponentPad*%
%ADD14C,4.572000*%
%TA.AperFunction,ComponentPad*%
%ADD15C,3.048000*%
%AMDIL006*
4,1,8,
-0.762000,0.965200,-0.457200,1.270000,0.457200,1.270000,0.762000,0.965200,0.762000,-0.965200,
0.457200,-1.270000,-0.457200,-1.270000,-0.762000,-0.965200,-0.762000,0.965200,
0*%
%TA.AperFunction,ComponentPad*%
%ADD16DIL006*%
%TA.AperFunction,ComponentPad*%
%ADD17C,2.540000*%
%TA.AperFunction,ComponentPad*%
%ADD18C,2.032000*%
%TA.AperFunction,OtherPad,Unknown*%
%ADD19C,5.000000*%
%TA.AperFunction,ComponentPad*%
%ADD70C,1.524000*%
%TA.AperFunction,ComponentPad*%
%ADD71C,1.778000*%
%TA.AperFunction,Profile*%
%ADD20C,0.203200*%
%TD.AperFunction*%
D10*
X-1204000Y+5214000D02*
X-992000Y+5214000D01*
X-780000Y+5002000D01*
X-780000Y+450000D01*
X-2170000Y-940000D01*
X-2630000Y-940000D01*
X-4040000Y-2350000D01*
X-4040000Y-7236000D01*
X-4294000Y-7490000D01*
X-5800000Y-7500000D01*
X-6050000Y-7830000D01*
X-6050000Y-8680000D01*
X-1210000Y+5990000D02*
X-340000Y+5990000D01*
X-80000Y+5730000D01*
X-80000Y+230000D01*
X-1840000Y-1530000D01*
X-2160000Y-1530000D01*
X-3010000Y-2380000D01*
X-3010000Y-7520380D01*
X-3289620Y-7800000D01*
X-3289620Y-8680000D01*
D11*
X-9142000Y+10290000D02*
X-9142000Y+10482625D01*
X-9044625Y+10580000D01*
X-8185625Y+10580000D01*
X-8120000Y+10514375D01*
X-8120000Y+10417000D01*
X-8126000Y+10290000D01*
D10*
X-1204000Y+5468000D02*
X-824000Y+5468000D01*
X-570000Y+5214000D01*
X-570000Y+460000D01*
X-2140000Y-1110000D01*
X-2520000Y-1110000D01*
X-3810000Y-2400000D01*
X-3810000Y-7240000D01*
X-4210000Y-7640000D01*
X-5450000Y-7640000D01*
X-5549620Y-7739620D01*
X-5549620Y-8680000D01*
X-1204000Y+5722000D02*
X-623999Y+5720609D01*
X-370000Y+5466000D01*
X-370000Y+310000D01*
X-2010000Y-1330000D01*
X-2350000Y-1330000D01*
X-3410000Y-2390000D01*
X-3410000Y-7430000D01*
X-3790000Y-7810000D01*
X-3790000Y-8680000D01*
X-7050000Y+1410000D02*
X-7050000Y+1020380D01*
X-7170380Y+900000D01*
X-7170380Y-8680000D01*
X-4414620Y-8680000D02*
X-4714620Y-8980000D01*
X-6596200Y-8980000D01*
X-6670000Y-8906200D01*
X-6670000Y-8680000D01*
X-6790000Y+1400000D02*
X-6790000Y+980000D01*
X-6880000Y+890000D01*
X-6880000Y-490000D01*
X-6670000Y-700000D01*
X-6670000Y-8680000D01*
D11*
X-10406000Y+2388250D02*
X-10406000Y+2014000D01*
X-10152000Y+1760000D01*
X-6917200Y+1760000D01*
X-6790000Y+1632800D01*
X-6790000Y+1505600D01*
X-6792000Y+1404000D01*
D10*
X-2220000Y+6230000D02*
X-2220000Y+6413100D01*
X-2326900Y+6520000D01*
X-4104767Y+6520000D01*
X-4260000Y+6364767D01*
X-4260000Y+6145233D01*
X-4104767Y+5990000D01*
X-3604000Y+5990000D01*
X-3350000Y+5736000D01*
X-3350000Y+4550000D01*
X-3610000Y+4290000D01*
X-3830000Y+4290000D01*
X-4100000Y+4020000D01*
X-4100000Y+3044000D01*
X-4354000Y+2790000D01*
X-9443125Y+2790000D01*
X-9644000Y+2589125D01*
X-9644000Y+2388250D01*
X-2474000Y+6230000D02*
X-2474000Y+4826000D01*
X-2815000Y+4485000D01*
X-3021000Y+4485000D01*
X-3810000Y+3696000D01*
X-3810000Y+2960001D01*
X-4120001Y+2650000D01*
X-4122635Y+2650000D01*
X-4190000Y+2582635D01*
X-4190000Y+2232806D01*
X-4362806Y+2060000D01*
X-9740225Y+2060000D01*
X-9898000Y+2217775D01*
X-9898000Y+2388250D01*
X+569000Y+7060000D02*
X+569000Y+7720000D01*
X+569000Y+8360000D01*
X+569000Y+9030000D01*
X+315000Y+9030000D02*
X+315000Y+9936000D01*
X+61000Y+10190000D01*
X-480000Y+10190000D01*
X+315000Y+7060000D02*
X+44000Y+7060000D01*
X-210000Y+7314000D01*
X-210000Y+9325000D01*
X-335000Y+9450000D01*
X-460000Y+9450000D01*
X+315000Y+7720000D02*
X+102500Y+7720000D01*
X-80000Y+7902500D01*
X-80000Y+9482250D01*
X-289500Y+9691750D01*
X-469000Y+9691750D01*
X+315000Y+8360000D02*
X+157500Y+8360000D01*
X+80000Y+8437500D01*
X+80000Y+9780000D01*
X-61750Y+9921750D01*
X-469000Y+9921750D01*
X-1458000Y+1912000D02*
X-1603050Y+1912000D01*
X-1710000Y+2018950D01*
X-1710000Y+6386000D01*
X-1456000Y+6640000D01*
X+359000Y+6640000D01*
X+569000Y+6850000D01*
X+569000Y+7060000D01*
X-5268000Y+6230000D02*
X-5268000Y+9437750D01*
X-5014000Y+9691750D01*
X-1485000Y+9691750D01*
X-5014000Y+6230000D02*
X-5014000Y+9197750D01*
X-4760000Y+9451750D01*
X-1485000Y+9451750D01*
X-5776000Y+6230000D02*
X-5776000Y+9776000D01*
X-5522002Y+10029075D01*
X-3030000Y+10020000D01*
X-1860000Y+10020000D01*
X-1690000Y+10190000D01*
X-1485000Y+10191750D01*
X-5522000Y+6230000D02*
X-5522000Y+9586000D01*
X-5268001Y+9839400D01*
X-2589998Y+9839978D01*
X-1770000Y+9850000D01*
X-1669963Y+9920988D01*
X-1485000Y+9921750D01*
D12*
X-3758000Y+2388250D02*
X-3758000Y+2682000D01*
X-3501522Y+2938478D01*
X-3501249Y+3525999D01*
X-3247131Y+3779999D01*
X-2760000Y+3780000D01*
X-1900000Y+4640000D01*
X-1900000Y+6926000D01*
D11*
X-1646000Y+7180000D01*
X-1284000Y+7180000D01*
X-1030000Y+7434000D01*
X-1030000Y+10256000D01*
X-1154000Y+10380000D01*
X-1770000Y+10380000D01*
D12*
X-1870000Y+10290000D01*
X-4010000Y+10288151D01*
D13*
X-9608000Y-640000D03*
X-9354000Y-640000D03*
X-9100000Y-640000D03*
X-8846000Y-640000D03*
X-8592000Y-640000D03*
X-8338000Y-640000D03*
X-8084000Y-640000D03*
X-7830000Y-640000D03*
X-4183000Y-640000D03*
X-3929000Y-640000D03*
X-3675000Y-640000D03*
X-3421000Y-640000D03*
X-3167000Y-640000D03*
X-2913000Y-640000D03*
X-2659000Y-640000D03*
X-2405000Y-640000D03*
D14*
X-464000Y-6090000D03*
X-4464000Y-6090000D03*
X-4464000Y-2090000D03*
X-464000Y-2090000D03*
X-5764000Y-6080000D03*
X-9764000Y-6080000D03*
X-9764000Y-2080000D03*
X-5764000Y-2080000D03*
D15*
X-3790000Y-8680000D03*
X-3289620Y-8680000D03*
X-7170380Y-8680000D03*
X-6670000Y-8680000D03*
X-6050000Y-8680000D03*
X-5549620Y-8680000D03*
X-4915000Y-8680000D03*
X-4414620Y-8680000D03*
D16*
X-9142000Y+10290000D03*
X-8888000Y+10290000D03*
X-8634000Y+10290000D03*
X-8380000Y+10290000D03*
X-8126000Y+10290000D03*
X-7872000Y+10290000D03*
X-7618000Y+10290000D03*
X-7364000Y+10290000D03*
X-7112000Y+10290000D03*
X-6858000Y+10290000D03*
X-6604000Y+10290000D03*
X-6350000Y+10290000D03*
X-6096000Y+10290000D03*
X-5842000Y+10290000D03*
X-5590000Y+10290000D03*
X-5336000Y+10290000D03*
D13*
X-3758000Y+2388250D03*
X-3504000Y+2388250D03*
X-3250000Y+2388250D03*
X-2996000Y+2388250D03*
X-2742000Y+2388250D03*
D17*
X-6552000Y-430000D03*
X-5790000Y-430000D03*
D18*
X-10430000Y+8750000D03*
X-10430000Y+10020000D03*
X-10176000Y+9512000D03*
D19*
X-11020000Y-8980000D03*
X+990000Y-8927500D03*
X-11010000Y+10647500D03*
X+990000Y+10647500D03*
D70*
X-6374200Y+540000D03*
X-6171000Y+540000D03*
X-5967800Y+540000D03*
D71*
X-1840000Y+1770000D03*
X-2856000Y+1770000D03*
X-5026000Y+10288151D03*
X-4010000Y+10288151D03*
D13*
X-7554000Y+1404000D03*
X-7300000Y+1404000D03*
X-7046000Y+1404000D03*
X-6792000Y+1404000D03*
X-6538000Y+1404000D03*
X-6284000Y+1404000D03*
X-5776000Y+1404000D03*
X-5522000Y+1404000D03*
X-5268000Y+1404000D03*
X-5014000Y+1404000D03*
X-4760000Y+1404000D03*
X-4506000Y+1404000D03*
X-4252000Y+1404000D03*
X-3998000Y+1404000D03*
X-3490000Y+1404000D03*
X-3236000Y+1404000D03*
X-2982000Y+1404000D03*
X-2728000Y+1404000D03*
X-2474000Y+1404000D03*
X-2220000Y+1404000D03*
X-1966000Y+1404000D03*
X-1712000Y+1404000D03*
X-1458000Y+1912000D03*
X-1458000Y+2166000D03*
X-1458000Y+2420000D03*
X-1458000Y+2674000D03*
X-1458000Y+2928000D03*
X-1458000Y+3182000D03*
X-1458000Y+3436000D03*
X-1458000Y+3690000D03*
X-1458000Y+3944000D03*
X-1458000Y+4198000D03*
X-1458000Y+4452000D03*
X-1458000Y+4706000D03*
X-1458000Y+4960000D03*
X-1458000Y+5214000D03*
X-1458000Y+5468000D03*
X-1458000Y+5722000D03*
X-1458000Y+5976000D03*
X-1458000Y+6230000D03*
X-1204000Y+1912000D03*
X-1204000Y+2166000D03*
X-1204000Y+2420000D03*
X-1204000Y+2674000D03*
X-1204000Y+2928000D03*
X-1204000Y+3182000D03*
X-1204000Y+3436000D03*
X-1204000Y+3690000D03*
X-1204000Y+3944000D03*
X-1204000Y+4198000D03*
X-1204000Y+4452000D03*
X-1204000Y+4706000D03*
X-1204000Y+4960000D03*
X-1204000Y+5214000D03*
X-1204000Y+5468000D03*
X-1204000Y+5722000D03*
X-1204000Y+5976000D03*
X-1204000Y+6230000D03*
X-2220000Y+6230000D03*
X-2474000Y+6230000D03*
X-2728000Y+6230000D03*
X-2982000Y+6230000D03*
X-3236000Y+6230000D03*
X-3490000Y+6230000D03*
X-3744000Y+6230000D03*
X-3998000Y+6230000D03*
X-4506000Y+6230000D03*
X-4760000Y+6230000D03*
X-5014000Y+6230000D03*
X-5268000Y+6230000D03*
X-5522000Y+6230000D03*
X-5776000Y+6230000D03*
X-6030000Y+6230000D03*
X-6284000Y+6230000D03*
X-6690400Y+6230000D03*
X-6944400Y+6230000D03*
X-7198400Y+6230000D03*
X-7452400Y+6230000D03*
X-7706400Y+6230000D03*
X-7960400Y+6230000D03*
X-8214400Y+6230000D03*
X-8468400Y+6230000D03*
D16*
X-9136000Y+2388250D03*
X-9390000Y+2388250D03*
X-9644000Y+2388250D03*
X-9898000Y+2388250D03*
X-10152000Y+2388250D03*
X-10406000Y+2388250D03*
D13*
X+315000Y+9030000D03*
X+569000Y+9030000D03*
X+315000Y+8360000D03*
X+569000Y+8360000D03*
X+315000Y+7720000D03*
X+569000Y+7720000D03*
X+315000Y+7060000D03*
X+569000Y+7060000D03*
D71*
X-1485000Y+9451750D03*
X-469000Y+9451750D03*
X-1485000Y+9691750D03*
X-469000Y+9691750D03*
X-1485000Y+9921750D03*
X-469000Y+9921750D03*
X-1485000Y+10191750D03*
X-469000Y+10191750D03*
D20*
X-11500000Y-9450000D02*
X+1500000Y-9450000D01*
X+1500000Y+11050000D01*
X-11500000Y+11050000D01*
X-11500000Y-9450000D01*
M02*
