G04 PROTEUS GERBER X2 FILE*
%TF.GenerationSoftware,Labcenter,Proteus,8.11-SP0-Build30052*%
%TF.CreationDate,2022-02-17T19:40:43+00:00*%
%TF.FileFunction,Plated,1,2,PTH*%
%TF.FilePolarity,Positive*%
%TF.Part,Single*%
%TF.SameCoordinates,{fa563668-36b4-49a2-8e21-0a91219477cd}*%
%FSLAX45Y45*%
%MOMM*%
G01*
%TA.AperFunction,ComponentDrill*%
%ADD50C,1.016000*%
%TA.AperFunction,ComponentDrill*%
%ADD51C,3.000000*%
%TA.AperFunction,ComponentDrill*%
%ADD52C,1.524000*%
%TA.AperFunction,ComponentDrill*%
%ADD53C,1.000000*%
%TA.AperFunction,ComponentDrill*%
%ADD54C,1.143000*%
%TA.AperFunction,ComponentDrill*%
%ADD55C,0.762000*%
%TA.AperFunction,OtherDrill,Unknown*%
%ADD56C,3.000000*%
%TD.AperFunction*%
D50*
X-9608000Y-640000D03*
X-9354000Y-640000D03*
X-9100000Y-640000D03*
X-8846000Y-640000D03*
X-8592000Y-640000D03*
X-8338000Y-640000D03*
X-8084000Y-640000D03*
X-7830000Y-640000D03*
X-4183000Y-640000D03*
X-3929000Y-640000D03*
X-3675000Y-640000D03*
X-3421000Y-640000D03*
X-3167000Y-640000D03*
X-2913000Y-640000D03*
X-2659000Y-640000D03*
X-2405000Y-640000D03*
D51*
X-464000Y-6090000D03*
X-4464000Y-6090000D03*
X-4464000Y-2090000D03*
X-464000Y-2090000D03*
X-5764000Y-6080000D03*
X-9764000Y-6080000D03*
X-9764000Y-2080000D03*
X-5764000Y-2080000D03*
D52*
X-3790000Y-8680000D03*
X-3289620Y-8680000D03*
X-7170380Y-8680000D03*
X-6670000Y-8680000D03*
X-6050000Y-8680000D03*
X-5549620Y-8680000D03*
X-4915000Y-8680000D03*
X-4414620Y-8680000D03*
D53*
X-9142000Y+10290000D03*
X-8888000Y+10290000D03*
X-8634000Y+10290000D03*
X-8380000Y+10290000D03*
X-8126000Y+10290000D03*
X-7872000Y+10290000D03*
X-7618000Y+10290000D03*
X-7364000Y+10290000D03*
X-7112000Y+10290000D03*
X-6858000Y+10290000D03*
X-6604000Y+10290000D03*
X-6350000Y+10290000D03*
X-6096000Y+10290000D03*
X-5842000Y+10290000D03*
X-5590000Y+10290000D03*
X-5336000Y+10290000D03*
D50*
X-3758000Y+2388250D03*
X-3504000Y+2388250D03*
X-3250000Y+2388250D03*
X-2996000Y+2388250D03*
X-2742000Y+2388250D03*
D54*
X-6552000Y-430000D03*
X-5790000Y-430000D03*
D55*
X-10430000Y+8750000D03*
X-10430000Y+10020000D03*
X-10176000Y+9512000D03*
D56*
X-11020000Y-8980000D03*
X+990000Y-8927500D03*
X-11010000Y+10647500D03*
X+990000Y+10647500D03*
D55*
X-6374200Y+540000D03*
X-6171000Y+540000D03*
X-5967800Y+540000D03*
X-1840000Y+1770000D03*
X-2856000Y+1770000D03*
X-5026000Y+10288151D03*
X-4010000Y+10288151D03*
D50*
X-7554000Y+1404000D03*
X-7300000Y+1404000D03*
X-7046000Y+1404000D03*
X-6792000Y+1404000D03*
X-6538000Y+1404000D03*
X-6284000Y+1404000D03*
X-5776000Y+1404000D03*
X-5522000Y+1404000D03*
X-5268000Y+1404000D03*
X-5014000Y+1404000D03*
X-4760000Y+1404000D03*
X-4506000Y+1404000D03*
X-4252000Y+1404000D03*
X-3998000Y+1404000D03*
X-3490000Y+1404000D03*
X-3236000Y+1404000D03*
X-2982000Y+1404000D03*
X-2728000Y+1404000D03*
X-2474000Y+1404000D03*
X-2220000Y+1404000D03*
X-1966000Y+1404000D03*
X-1712000Y+1404000D03*
X-1458000Y+1912000D03*
X-1458000Y+2166000D03*
X-1458000Y+2420000D03*
X-1458000Y+2674000D03*
X-1458000Y+2928000D03*
X-1458000Y+3182000D03*
X-1458000Y+3436000D03*
X-1458000Y+3690000D03*
X-1458000Y+3944000D03*
X-1458000Y+4198000D03*
X-1458000Y+4452000D03*
X-1458000Y+4706000D03*
X-1458000Y+4960000D03*
X-1458000Y+5214000D03*
X-1458000Y+5468000D03*
X-1458000Y+5722000D03*
X-1458000Y+5976000D03*
X-1458000Y+6230000D03*
X-1204000Y+1912000D03*
X-1204000Y+2166000D03*
X-1204000Y+2420000D03*
X-1204000Y+2674000D03*
X-1204000Y+2928000D03*
X-1204000Y+3182000D03*
X-1204000Y+3436000D03*
X-1204000Y+3690000D03*
X-1204000Y+3944000D03*
X-1204000Y+4198000D03*
X-1204000Y+4452000D03*
X-1204000Y+4706000D03*
X-1204000Y+4960000D03*
X-1204000Y+5214000D03*
X-1204000Y+5468000D03*
X-1204000Y+5722000D03*
X-1204000Y+5976000D03*
X-1204000Y+6230000D03*
X-2220000Y+6230000D03*
X-2474000Y+6230000D03*
X-2728000Y+6230000D03*
X-2982000Y+6230000D03*
X-3236000Y+6230000D03*
X-3490000Y+6230000D03*
X-3744000Y+6230000D03*
X-3998000Y+6230000D03*
X-4506000Y+6230000D03*
X-4760000Y+6230000D03*
X-5014000Y+6230000D03*
X-5268000Y+6230000D03*
X-5522000Y+6230000D03*
X-5776000Y+6230000D03*
X-6030000Y+6230000D03*
X-6284000Y+6230000D03*
X-6690400Y+6230000D03*
X-6944400Y+6230000D03*
X-7198400Y+6230000D03*
X-7452400Y+6230000D03*
X-7706400Y+6230000D03*
X-7960400Y+6230000D03*
X-8214400Y+6230000D03*
X-8468400Y+6230000D03*
D53*
X-9136000Y+2388250D03*
X-9390000Y+2388250D03*
X-9644000Y+2388250D03*
X-9898000Y+2388250D03*
X-10152000Y+2388250D03*
X-10406000Y+2388250D03*
D50*
X+315000Y+9030000D03*
X+569000Y+9030000D03*
X+315000Y+8360000D03*
X+569000Y+8360000D03*
X+315000Y+7720000D03*
X+569000Y+7720000D03*
X+315000Y+7060000D03*
X+569000Y+7060000D03*
D55*
X-1485000Y+9451750D03*
X-469000Y+9451750D03*
X-1485000Y+9691750D03*
X-469000Y+9691750D03*
X-1485000Y+9921750D03*
X-469000Y+9921750D03*
X-1485000Y+10191750D03*
X-469000Y+10191750D03*
M02*
