G04 PROTEUS GERBER X2 FILE*
%TF.GenerationSoftware,Labcenter,Proteus,8.11-SP0-Build30052*%
%TF.CreationDate,2022-02-17T19:40:43+00:00*%
%TF.FileFunction,AssemblyDrawing,Top*%
%TF.FilePolarity,Positive*%
%TF.Part,Single*%
%TF.SameCoordinates,{fa563668-36b4-49a2-8e21-0a91219477cd}*%
%FSLAX45Y45*%
%MOMM*%
G01*
%TA.AperFunction,Profile*%
%ADD20C,0.203200*%
%TA.AperFunction,Material*%
%ADD24C,0.203200*%
%ADD34C,0.812800*%
%ADD35C,1.828800*%
%ADD36C,0.583020*%
%ADD37C,1.219200*%
%ADD38C,0.229610*%
%ADD39C,1.016000*%
%ADD40C,0.266700*%
%ADD41C,0.063330*%
%ADD42C,0.156020*%
%ADD43C,0.159170*%
%ADD44C,0.191910*%
%ADD45C,0.609600*%
%ADD46C,0.084240*%
%ADD47C,0.711200*%
%ADD48C,0.110230*%
%ADD49C,0.133600*%
%TD.AperFunction*%
D20*
X-11500000Y-9450000D02*
X+1500000Y-9450000D01*
X+1500000Y+11050000D01*
X-11500000Y+11050000D01*
X-11500000Y-9450000D01*
D24*
X-9745160Y-777160D02*
X-7692840Y-777160D01*
X-7692840Y-502840D01*
X-9745160Y-502840D01*
X-9745160Y-777160D01*
D34*
X-9608000Y-640000D02*
X-9608000Y-640000D01*
D24*
X-4320160Y-777160D02*
X-2267840Y-777160D01*
X-2267840Y-502840D01*
X-4320160Y-502840D01*
X-4320160Y-777160D01*
D34*
X-4183000Y-640000D02*
X-4183000Y-640000D01*
D24*
X-4949860Y-6610460D02*
X+36160Y-6610460D01*
X+36160Y-1649840D01*
X-4949860Y-1649840D01*
X-4949860Y-6610460D01*
D35*
X-464000Y-6090000D02*
X-464000Y-6090000D01*
D36*
X-2577742Y-5966673D02*
X-2927557Y-5966673D01*
X-2927557Y-5638723D01*
X-2869254Y-5573133D01*
X-2810952Y-5573133D01*
X-2752650Y-5638723D01*
X-2694347Y-5573133D01*
X-2636045Y-5573133D01*
X-2577742Y-5638723D01*
X-2577742Y-5966673D01*
X-2752650Y-5966673D02*
X-2752650Y-5638723D01*
X-2927557Y-5441952D02*
X-2927557Y-5048412D01*
X-2927557Y-5245182D02*
X-2577742Y-5245182D01*
X-2636045Y-4917231D02*
X-2577742Y-4851641D01*
X-2577742Y-4589281D01*
X-2636045Y-4523691D01*
X-2694347Y-4523691D01*
X-2752650Y-4589281D01*
X-2752650Y-4851641D01*
X-2810952Y-4917231D01*
X-2869254Y-4917231D01*
X-2927557Y-4851641D01*
X-2927557Y-4589281D01*
X-2869254Y-4523691D01*
X-2927557Y-4326920D02*
X-2927557Y-3998970D01*
X-2869254Y-3998970D01*
X-2577742Y-4326920D01*
X-2810952Y-3474249D02*
X-2752650Y-3539839D01*
X-2752650Y-3736609D01*
X-2810952Y-3802199D01*
X-2869254Y-3802199D01*
X-2927557Y-3736609D01*
X-2927557Y-3539839D01*
X-2869254Y-3474249D01*
X-2636045Y-3474249D01*
X-2577742Y-3539839D01*
X-2577742Y-3736609D01*
X-2869254Y-2949528D02*
X-2927557Y-3015118D01*
X-2927557Y-3211888D01*
X-2869254Y-3277478D01*
X-2636045Y-3277478D01*
X-2577742Y-3211888D01*
X-2577742Y-3015118D01*
X-2636045Y-2949528D01*
X-2694347Y-2949528D01*
X-2752650Y-3015118D01*
X-2752650Y-3277478D01*
X-2636045Y-2818347D02*
X-2869254Y-2818347D01*
X-2927557Y-2752757D01*
X-2927557Y-2490397D01*
X-2869254Y-2424807D01*
X-2636045Y-2424807D01*
X-2577742Y-2490397D01*
X-2577742Y-2752757D01*
X-2636045Y-2818347D01*
X-2577742Y-2818347D02*
X-2927557Y-2424807D01*
D24*
X-10249860Y-6600460D02*
X-5263840Y-6600460D01*
X-5263840Y-1639840D01*
X-10249860Y-1639840D01*
X-10249860Y-6600460D01*
D35*
X-5764000Y-6080000D02*
X-5764000Y-6080000D01*
D36*
X-7877742Y-5956673D02*
X-8227557Y-5956673D01*
X-8227557Y-5628723D01*
X-8169254Y-5563133D01*
X-8110952Y-5563133D01*
X-8052650Y-5628723D01*
X-7994347Y-5563133D01*
X-7936045Y-5563133D01*
X-7877742Y-5628723D01*
X-7877742Y-5956673D01*
X-8052650Y-5956673D02*
X-8052650Y-5628723D01*
X-8227557Y-5431952D02*
X-8227557Y-5038412D01*
X-8227557Y-5235182D02*
X-7877742Y-5235182D01*
X-7936045Y-4907231D02*
X-7877742Y-4841641D01*
X-7877742Y-4579281D01*
X-7936045Y-4513691D01*
X-7994347Y-4513691D01*
X-8052650Y-4579281D01*
X-8052650Y-4841641D01*
X-8110952Y-4907231D01*
X-8169254Y-4907231D01*
X-8227557Y-4841641D01*
X-8227557Y-4579281D01*
X-8169254Y-4513691D01*
X-8227557Y-4316920D02*
X-8227557Y-3988970D01*
X-8169254Y-3988970D01*
X-7877742Y-4316920D01*
X-8110952Y-3464249D02*
X-8052650Y-3529839D01*
X-8052650Y-3726609D01*
X-8110952Y-3792199D01*
X-8169254Y-3792199D01*
X-8227557Y-3726609D01*
X-8227557Y-3529839D01*
X-8169254Y-3464249D01*
X-7936045Y-3464249D01*
X-7877742Y-3529839D01*
X-7877742Y-3726609D01*
X-8169254Y-2939528D02*
X-8227557Y-3005118D01*
X-8227557Y-3201888D01*
X-8169254Y-3267478D01*
X-7936045Y-3267478D01*
X-7877742Y-3201888D01*
X-7877742Y-3005118D01*
X-7936045Y-2939528D01*
X-7994347Y-2939528D01*
X-8052650Y-3005118D01*
X-8052650Y-3267478D01*
X-7936045Y-2808347D02*
X-8169254Y-2808347D01*
X-8227557Y-2742757D01*
X-8227557Y-2480397D01*
X-8169254Y-2414807D01*
X-7936045Y-2414807D01*
X-7877742Y-2480397D01*
X-7877742Y-2742757D01*
X-7936045Y-2808347D01*
X-7877742Y-2808347D02*
X-8227557Y-2414807D01*
D24*
X-4054160Y-9071160D02*
X-3017840Y-9071160D01*
X-3017840Y-8288840D01*
X-4054160Y-8288840D01*
X-4054160Y-9071160D01*
D37*
X-3790000Y-8680000D02*
X-3790000Y-8680000D01*
D38*
X-3304555Y-8989981D02*
X-3396401Y-8989981D01*
X-3442324Y-8938318D01*
X-3442324Y-8886654D01*
X-3396401Y-8834991D01*
X-3304555Y-8834991D01*
X-3350478Y-8989981D02*
X-3350478Y-8834991D01*
X-3327516Y-8783327D02*
X-3304555Y-8757496D01*
X-3304555Y-8654169D01*
X-3327516Y-8628337D01*
X-3350478Y-8628337D01*
X-3373440Y-8654169D01*
X-3373440Y-8757496D01*
X-3396401Y-8783327D01*
X-3419363Y-8783327D01*
X-3442324Y-8757496D01*
X-3442324Y-8654169D01*
X-3419363Y-8628337D01*
X-3396401Y-8525010D02*
X-3442324Y-8473346D01*
X-3304555Y-8473346D01*
D24*
X-7434540Y-9071160D02*
X-6398220Y-9071160D01*
X-6398220Y-8288840D01*
X-7434540Y-8288840D01*
X-7434540Y-9071160D01*
D37*
X-7170380Y-8680000D02*
X-7170380Y-8680000D01*
D38*
X-6684935Y-8989981D02*
X-6776781Y-8989981D01*
X-6822704Y-8938318D01*
X-6822704Y-8886654D01*
X-6776781Y-8834991D01*
X-6684935Y-8834991D01*
X-6730858Y-8989981D02*
X-6730858Y-8834991D01*
X-6707896Y-8783327D02*
X-6684935Y-8757496D01*
X-6684935Y-8654169D01*
X-6707896Y-8628337D01*
X-6730858Y-8628337D01*
X-6753820Y-8654169D01*
X-6753820Y-8757496D01*
X-6776781Y-8783327D01*
X-6799743Y-8783327D01*
X-6822704Y-8757496D01*
X-6822704Y-8654169D01*
X-6799743Y-8628337D01*
X-6799743Y-8550842D02*
X-6822704Y-8525010D01*
X-6822704Y-8447515D01*
X-6799743Y-8421683D01*
X-6776781Y-8421683D01*
X-6753820Y-8447515D01*
X-6753820Y-8525010D01*
X-6730858Y-8550842D01*
X-6684935Y-8550842D01*
X-6684935Y-8421683D01*
D24*
X-6314160Y-9071160D02*
X-5277840Y-9071160D01*
X-5277840Y-8288840D01*
X-6314160Y-8288840D01*
X-6314160Y-9071160D01*
D37*
X-6050000Y-8680000D02*
X-6050000Y-8680000D01*
D38*
X-5564555Y-8989981D02*
X-5702324Y-8989981D01*
X-5702324Y-8860823D01*
X-5679363Y-8834991D01*
X-5656401Y-8834991D01*
X-5633440Y-8860823D01*
X-5610478Y-8834991D01*
X-5587516Y-8834991D01*
X-5564555Y-8860823D01*
X-5564555Y-8989981D01*
X-5633440Y-8989981D02*
X-5633440Y-8860823D01*
X-5587516Y-8783327D02*
X-5564555Y-8757496D01*
X-5564555Y-8654169D01*
X-5587516Y-8628337D01*
X-5610478Y-8628337D01*
X-5633440Y-8654169D01*
X-5633440Y-8757496D01*
X-5656401Y-8783327D01*
X-5679363Y-8783327D01*
X-5702324Y-8757496D01*
X-5702324Y-8654169D01*
X-5679363Y-8628337D01*
X-5656401Y-8525010D02*
X-5702324Y-8473346D01*
X-5564555Y-8473346D01*
D24*
X-5179160Y-9071160D02*
X-4142840Y-9071160D01*
X-4142840Y-8288840D01*
X-5179160Y-8288840D01*
X-5179160Y-9071160D01*
D37*
X-4915000Y-8680000D02*
X-4915000Y-8680000D01*
D38*
X-4429555Y-8989981D02*
X-4567324Y-8989981D01*
X-4567324Y-8860823D01*
X-4544363Y-8834991D01*
X-4521401Y-8834991D01*
X-4498440Y-8860823D01*
X-4475478Y-8834991D01*
X-4452516Y-8834991D01*
X-4429555Y-8860823D01*
X-4429555Y-8989981D01*
X-4498440Y-8989981D02*
X-4498440Y-8860823D01*
X-4452516Y-8783327D02*
X-4429555Y-8757496D01*
X-4429555Y-8654169D01*
X-4452516Y-8628337D01*
X-4475478Y-8628337D01*
X-4498440Y-8654169D01*
X-4498440Y-8757496D01*
X-4521401Y-8783327D01*
X-4544363Y-8783327D01*
X-4567324Y-8757496D01*
X-4567324Y-8654169D01*
X-4544363Y-8628337D01*
X-4544363Y-8550842D02*
X-4567324Y-8525010D01*
X-4567324Y-8447515D01*
X-4544363Y-8421683D01*
X-4521401Y-8421683D01*
X-4498440Y-8447515D01*
X-4498440Y-8525010D01*
X-4475478Y-8550842D01*
X-4429555Y-8550842D01*
X-4429555Y-8421683D01*
D24*
X-9279160Y+10089340D02*
X-5706840Y+10089340D01*
X-5706840Y+10490660D01*
X-9279160Y+10490660D01*
X-9279160Y+10089340D01*
D39*
X-9142000Y+10290000D02*
X-9142000Y+10290000D01*
D40*
X-7879080Y+10370010D02*
X-7879080Y+10209990D01*
X-7699058Y+10209990D01*
X-7459028Y+10236660D02*
X-7489032Y+10209990D01*
X-7579043Y+10209990D01*
X-7639050Y+10263330D01*
X-7639050Y+10316670D01*
X-7579043Y+10370010D01*
X-7489032Y+10370010D01*
X-7459028Y+10343340D01*
X-7399020Y+10209990D02*
X-7399020Y+10370010D01*
X-7279005Y+10370010D01*
X-7218998Y+10316670D01*
X-7218998Y+10263330D01*
X-7279005Y+10209990D01*
X-7399020Y+10209990D01*
X-7098983Y+10316670D02*
X-7038975Y+10370010D01*
X-7038975Y+10209990D01*
D24*
X-5726160Y+10089840D02*
X-5195840Y+10089840D01*
X-5195840Y+10490160D01*
X-5726160Y+10490160D01*
X-5726160Y+10089840D01*
D39*
X-5590000Y+10290000D02*
X-5590000Y+10290000D01*
D41*
X-5386520Y+10119003D02*
X-5348520Y+10119003D01*
X-5348520Y+10161752D01*
X-5354853Y+10218751D02*
X-5348520Y+10211626D01*
X-5348520Y+10190251D01*
X-5361187Y+10176002D01*
X-5373853Y+10176002D01*
X-5386520Y+10190251D01*
X-5386520Y+10211626D01*
X-5380187Y+10218751D01*
X-5348520Y+10233001D02*
X-5386520Y+10233001D01*
X-5386520Y+10261500D01*
X-5373853Y+10275750D01*
X-5361187Y+10275750D01*
X-5348520Y+10261500D01*
X-5348520Y+10233001D01*
X-5348520Y+10290000D02*
X-5386520Y+10290000D01*
X-5386520Y+10325624D01*
X-5380187Y+10332749D01*
X-5373853Y+10332749D01*
X-5367520Y+10325624D01*
X-5367520Y+10290000D01*
X-5386520Y+10346999D02*
X-5348520Y+10346999D01*
X-5367520Y+10368373D01*
X-5348520Y+10389748D01*
X-5386520Y+10389748D01*
X-5348520Y+10403998D02*
X-5386520Y+10403998D01*
X-5386520Y+10439622D01*
X-5380187Y+10446747D01*
X-5373853Y+10446747D01*
X-5367520Y+10439622D01*
X-5367520Y+10403998D01*
X-5367520Y+10439622D02*
X-5361187Y+10446747D01*
X-5348520Y+10446747D01*
D24*
X-3895160Y+2251090D02*
X-2604840Y+2251090D01*
X-2604840Y+2525410D01*
X-3895160Y+2525410D01*
X-3895160Y+2251090D01*
D34*
X-3758000Y+2388250D02*
X-3758000Y+2388250D01*
D42*
X-3547269Y+2341441D02*
X-3652587Y+2341441D01*
X-3652587Y+2435058D01*
X-3547269Y+2435058D01*
X-3652587Y+2388250D02*
X-3582375Y+2388250D01*
X-3512162Y+2341441D02*
X-3512162Y+2435058D01*
X-3406844Y+2341441D01*
X-3406844Y+2435058D01*
X-3266419Y+2357044D02*
X-3283972Y+2341441D01*
X-3336631Y+2341441D01*
X-3371737Y+2372647D01*
X-3371737Y+2403852D01*
X-3336631Y+2435058D01*
X-3283972Y+2435058D01*
X-3266419Y+2419455D01*
X-3231312Y+2403852D02*
X-3196206Y+2435058D01*
X-3161100Y+2435058D01*
X-3125994Y+2403852D01*
X-3125994Y+2372647D01*
X-3161100Y+2341441D01*
X-3196206Y+2341441D01*
X-3231312Y+2372647D01*
X-3231312Y+2403852D01*
X-3090887Y+2341441D02*
X-3090887Y+2435058D01*
X-3020675Y+2435058D01*
X-2985569Y+2403852D01*
X-2985569Y+2372647D01*
X-3020675Y+2341441D01*
X-3090887Y+2341441D01*
X-2845144Y+2341441D02*
X-2950462Y+2341441D01*
X-2950462Y+2435058D01*
X-2845144Y+2435058D01*
X-2950462Y+2388250D02*
X-2880250Y+2388250D01*
X-2810037Y+2341441D02*
X-2810037Y+2435058D01*
X-2722272Y+2435058D01*
X-2704719Y+2419455D01*
X-2704719Y+2403852D01*
X-2722272Y+2388250D01*
X-2810037Y+2388250D01*
X-2722272Y+2388250D02*
X-2704719Y+2372647D01*
X-2704719Y+2341441D01*
D24*
X-6816160Y-694160D02*
X-5525840Y-694160D01*
X-5525840Y-165840D01*
X-6816160Y-165840D01*
X-6816160Y-694160D01*
D39*
X-6552000Y-430000D02*
X-6552000Y-430000D01*
D43*
X-6443285Y-477752D02*
X-6443285Y-382248D01*
X-6353751Y-382248D01*
X-6335844Y-398165D01*
X-6335844Y-414083D01*
X-6353751Y-430000D01*
X-6335844Y-445917D01*
X-6335844Y-461835D01*
X-6353751Y-477752D01*
X-6443285Y-477752D01*
X-6443285Y-430000D02*
X-6353751Y-430000D01*
X-6300030Y-382248D02*
X-6300030Y-461835D01*
X-6282124Y-477752D01*
X-6210496Y-477752D01*
X-6192589Y-461835D01*
X-6192589Y-382248D01*
X-6156775Y-382248D02*
X-6049334Y-382248D01*
X-6156775Y-477752D01*
X-6049334Y-477752D01*
X-6013520Y-382248D02*
X-5906079Y-382248D01*
X-6013520Y-477752D01*
X-5906079Y-477752D01*
X-5762824Y-477752D02*
X-5870265Y-477752D01*
X-5870265Y-382248D01*
X-5762824Y-382248D01*
X-5870265Y-430000D02*
X-5798638Y-430000D01*
X-5727010Y-477752D02*
X-5727010Y-382248D01*
X-5637476Y-382248D01*
X-5619569Y-398165D01*
X-5619569Y-414083D01*
X-5637476Y-430000D01*
X-5727010Y-430000D01*
X-5637476Y-430000D02*
X-5619569Y-445917D01*
X-5619569Y-477752D01*
D24*
X-10567160Y+8358840D02*
X-10038840Y+8358840D01*
X-10038840Y+10538160D01*
X-10567160Y+10538160D01*
X-10567160Y+8358840D01*
D34*
X-10430000Y+8750000D02*
X-10430000Y+8750000D01*
D44*
X-10264618Y+9016704D02*
X-10245427Y+8995114D01*
X-10245427Y+8930344D01*
X-10283809Y+8887165D01*
X-10322191Y+8887165D01*
X-10360573Y+8930344D01*
X-10360573Y+8995114D01*
X-10341382Y+9016704D01*
X-10322191Y+9059884D02*
X-10360573Y+9103063D01*
X-10360573Y+9146243D01*
X-10322191Y+9189423D01*
X-10283809Y+9189423D01*
X-10245427Y+9146243D01*
X-10245427Y+9103063D01*
X-10283809Y+9059884D01*
X-10322191Y+9059884D01*
X-10245427Y+9232603D02*
X-10360573Y+9232603D01*
X-10245427Y+9362142D01*
X-10360573Y+9362142D01*
X-10360573Y+9405322D02*
X-10360573Y+9534861D01*
X-10360573Y+9470091D02*
X-10245427Y+9470091D01*
X-10245427Y+9578041D02*
X-10360573Y+9578041D01*
X-10360573Y+9685990D01*
X-10341382Y+9707580D01*
X-10322191Y+9707580D01*
X-10303000Y+9685990D01*
X-10303000Y+9578041D01*
X-10303000Y+9685990D02*
X-10283809Y+9707580D01*
X-10245427Y+9707580D01*
X-10245427Y+9750760D02*
X-10322191Y+9750760D01*
X-10360573Y+9793939D01*
X-10360573Y+9837119D01*
X-10322191Y+9880299D01*
X-10245427Y+9880299D01*
X-10283809Y+9750760D02*
X-10283809Y+9880299D01*
X-10264618Y+9923479D02*
X-10245427Y+9945068D01*
X-10245427Y+10031428D01*
X-10264618Y+10053018D01*
X-10283809Y+10053018D01*
X-10303000Y+10031428D01*
X-10303000Y+9945068D01*
X-10322191Y+9923479D01*
X-10341382Y+9923479D01*
X-10360573Y+9945068D01*
X-10360573Y+10031428D01*
X-10341382Y+10053018D01*
X-10360573Y+10096198D02*
X-10360573Y+10225737D01*
X-10360573Y+10160967D02*
X-10245427Y+10160967D01*
X-10245427Y+10398456D02*
X-10245427Y+10268917D01*
X-10360573Y+10268917D01*
X-10360573Y+10398456D01*
X-10303000Y+10268917D02*
X-10303000Y+10355276D01*
D24*
X-6524060Y+364740D02*
X-5817940Y+364740D01*
X-5817940Y+867660D01*
X-6524060Y+867660D01*
X-6524060Y+364740D01*
D45*
X-6374200Y+540000D02*
X-6374200Y+540000D01*
D46*
X-6298807Y+633049D02*
X-6289330Y+641473D01*
X-6260898Y+641473D01*
X-6251421Y+633049D01*
X-6251421Y+624624D01*
X-6260898Y+616200D01*
X-6289330Y+616200D01*
X-6298807Y+607776D01*
X-6298807Y+590927D01*
X-6251421Y+590927D01*
X-6232466Y+590927D02*
X-6232466Y+641473D01*
X-6175603Y+590927D01*
X-6175603Y+641473D01*
X-6147171Y+633049D02*
X-6137694Y+641473D01*
X-6109262Y+641473D01*
X-6099785Y+633049D01*
X-6099785Y+624624D01*
X-6109262Y+616200D01*
X-6137694Y+616200D01*
X-6147171Y+607776D01*
X-6147171Y+590927D01*
X-6099785Y+590927D01*
X-6071353Y+633049D02*
X-6061876Y+641473D01*
X-6033444Y+641473D01*
X-6023967Y+633049D01*
X-6023967Y+624624D01*
X-6033444Y+616200D01*
X-6061876Y+616200D01*
X-6071353Y+607776D01*
X-6071353Y+590927D01*
X-6023967Y+590927D01*
X-5995535Y+633049D02*
X-5986058Y+641473D01*
X-5957626Y+641473D01*
X-5948149Y+633049D01*
X-5948149Y+624624D01*
X-5957626Y+616200D01*
X-5986058Y+616200D01*
X-5995535Y+607776D01*
X-5995535Y+590927D01*
X-5948149Y+590927D01*
X-5919717Y+633049D02*
X-5910240Y+641473D01*
X-5881808Y+641473D01*
X-5872331Y+633049D01*
X-5872331Y+624624D01*
X-5881808Y+616200D01*
X-5910240Y+616200D01*
X-5919717Y+607776D01*
X-5919717Y+590927D01*
X-5872331Y+590927D01*
D24*
X-2944900Y+1681100D02*
X-1751100Y+1681100D01*
X-1751100Y+1858900D01*
X-2944900Y+1858900D01*
X-2944900Y+1681100D01*
D47*
X-1840000Y+1770000D02*
X-1840000Y+1770000D01*
D48*
X-2509442Y+1736929D02*
X-2509442Y+1803070D01*
X-2447435Y+1803070D01*
X-2435033Y+1792047D01*
X-2435033Y+1781023D01*
X-2447435Y+1770000D01*
X-2509442Y+1770000D01*
X-2447435Y+1770000D02*
X-2435033Y+1758976D01*
X-2435033Y+1736929D01*
X-2385427Y+1781023D02*
X-2360624Y+1803070D01*
X-2360624Y+1736929D01*
D24*
X-5114900Y+10199251D02*
X-3921100Y+10199251D01*
X-3921100Y+10377051D01*
X-5114900Y+10377051D01*
X-5114900Y+10199251D01*
D47*
X-5026000Y+10288151D02*
X-5026000Y+10288151D01*
D48*
X-4554982Y+10255080D02*
X-4554982Y+10321221D01*
X-4492975Y+10321221D01*
X-4480573Y+10310198D01*
X-4480573Y+10299174D01*
X-4492975Y+10288151D01*
X-4554982Y+10288151D01*
X-4492975Y+10288151D02*
X-4480573Y+10277127D01*
X-4480573Y+10255080D01*
X-4443369Y+10310198D02*
X-4430967Y+10321221D01*
X-4393763Y+10321221D01*
X-4381361Y+10310198D01*
X-4381361Y+10299174D01*
X-4393763Y+10288151D01*
X-4430967Y+10288151D01*
X-4443369Y+10277127D01*
X-4443369Y+10255080D01*
X-4381361Y+10255080D01*
D24*
X-11501160Y+1139840D02*
X-685840Y+1139840D01*
X-685840Y+6494160D01*
X-11501160Y+6494160D01*
X-11501160Y+1139840D01*
D34*
X-7554000Y+1404000D02*
X-7554000Y+1404000D01*
D24*
X-10543160Y+2187590D02*
X-8998840Y+2187590D01*
X-8998840Y+2588910D01*
X-10543160Y+2588910D01*
X-10543160Y+2187590D01*
D39*
X-9136000Y+2388250D02*
X-9136000Y+2388250D01*
D49*
X-10466195Y+2348168D02*
X-10466195Y+2428331D01*
X-10391044Y+2428331D01*
X-10376013Y+2414970D01*
X-10376013Y+2401610D01*
X-10391044Y+2388250D01*
X-10466195Y+2388250D01*
X-10391044Y+2388250D02*
X-10376013Y+2374889D01*
X-10376013Y+2348168D01*
X-10345952Y+2428331D02*
X-10255770Y+2428331D01*
X-10300861Y+2428331D02*
X-10300861Y+2348168D01*
X-10135527Y+2361529D02*
X-10150558Y+2348168D01*
X-10195649Y+2348168D01*
X-10225709Y+2374889D01*
X-10225709Y+2401610D01*
X-10195649Y+2428331D01*
X-10150558Y+2428331D01*
X-10135527Y+2414970D01*
X-10105466Y+2334808D02*
X-10015284Y+2334808D01*
X-9985223Y+2348168D02*
X-9985223Y+2428331D01*
X-9925102Y+2428331D01*
X-9895041Y+2401610D01*
X-9895041Y+2374889D01*
X-9925102Y+2348168D01*
X-9985223Y+2348168D01*
X-9864980Y+2361529D02*
X-9849950Y+2348168D01*
X-9789829Y+2348168D01*
X-9774798Y+2361529D01*
X-9774798Y+2374889D01*
X-9789829Y+2388250D01*
X-9849950Y+2388250D01*
X-9864980Y+2401610D01*
X-9864980Y+2414970D01*
X-9849950Y+2428331D01*
X-9789829Y+2428331D01*
X-9774798Y+2414970D01*
X-9729707Y+2414970D02*
X-9714677Y+2428331D01*
X-9669586Y+2428331D01*
X-9654555Y+2414970D01*
X-9654555Y+2401610D01*
X-9669586Y+2388250D01*
X-9654555Y+2374889D01*
X-9654555Y+2361529D01*
X-9669586Y+2348168D01*
X-9714677Y+2348168D01*
X-9729707Y+2361529D01*
X-9699646Y+2388250D02*
X-9669586Y+2388250D01*
X-9609464Y+2414970D02*
X-9594434Y+2428331D01*
X-9549343Y+2428331D01*
X-9534312Y+2414970D01*
X-9534312Y+2401610D01*
X-9549343Y+2388250D01*
X-9594434Y+2388250D01*
X-9609464Y+2374889D01*
X-9609464Y+2348168D01*
X-9534312Y+2348168D01*
X-9489221Y+2414970D02*
X-9474191Y+2428331D01*
X-9429100Y+2428331D01*
X-9414069Y+2414970D01*
X-9414069Y+2401610D01*
X-9429100Y+2388250D01*
X-9414069Y+2374889D01*
X-9414069Y+2361529D01*
X-9429100Y+2348168D01*
X-9474191Y+2348168D01*
X-9489221Y+2361529D01*
X-9459160Y+2388250D02*
X-9429100Y+2388250D01*
X-9353948Y+2401610D02*
X-9323887Y+2428331D01*
X-9323887Y+2348168D01*
D24*
X+114340Y+8765840D02*
X+706160Y+8765840D01*
X+706160Y+9357660D01*
X+114340Y+9357660D01*
X+114340Y+8765840D01*
D34*
X+569000Y+9030000D02*
X+569000Y+9030000D01*
D24*
X+114340Y+8095840D02*
X+706160Y+8095840D01*
X+706160Y+8687660D01*
X+114340Y+8687660D01*
X+114340Y+8095840D01*
D34*
X+569000Y+8360000D02*
X+569000Y+8360000D01*
D24*
X+114340Y+7455840D02*
X+706160Y+7455840D01*
X+706160Y+8047660D01*
X+114340Y+8047660D01*
X+114340Y+7455840D01*
D34*
X+569000Y+7720000D02*
X+569000Y+7720000D01*
D24*
X+114340Y+6795840D02*
X+706160Y+6795840D01*
X+706160Y+7387660D01*
X+114340Y+7387660D01*
X+114340Y+6795840D01*
D34*
X+569000Y+7060000D02*
X+569000Y+7060000D01*
D24*
X-1573900Y+9362850D02*
X-380100Y+9362850D01*
X-380100Y+9540650D01*
X-1573900Y+9540650D01*
X-1573900Y+9362850D01*
D47*
X-1485000Y+9451750D02*
X-1485000Y+9451750D01*
D24*
X-1573900Y+9602850D02*
X-380100Y+9602850D01*
X-380100Y+9780650D01*
X-1573900Y+9780650D01*
X-1573900Y+9602850D01*
D47*
X-1485000Y+9691750D02*
X-1485000Y+9691750D01*
D24*
X-1573900Y+9832850D02*
X-380100Y+9832850D01*
X-380100Y+10010650D01*
X-1573900Y+10010650D01*
X-1573900Y+9832850D01*
D47*
X-1485000Y+9921750D02*
X-1485000Y+9921750D01*
D24*
X-1573900Y+10102850D02*
X-380100Y+10102850D01*
X-380100Y+10280650D01*
X-1573900Y+10280650D01*
X-1573900Y+10102850D01*
D47*
X-1485000Y+10191750D02*
X-1485000Y+10191750D01*
M02*
